<?xml version="1.0" encoding="UTF-8" standalone="no"?>
<svg
   xmlns:x="adobe:ns:meta/"
   xmlns:dc="http://purl.org/dc/elements/1.1/"
   xmlns:cc="http://creativecommons.org/ns#"
   xmlns:rdf="http://www.w3.org/1999/02/22-rdf-syntax-ns#"
   xmlns:svg="http://www.w3.org/2000/svg"
   xmlns="http://www.w3.org/2000/svg"
   id="svg4492"
   version="1.1"
   viewBox="0 0 1000 1000"
   height="1000"
   width="1000">
  <metadata
     id="metadata4485">
 </metadata>
  <defs
     id="defs4489">
    <style
       id="style4487">
      .cls-1 {
        fill: #00a2bd;
        fill-rule: evenodd;
      }
    </style>
  </defs>
  <path
     style="fill:#00a2bd;fill-rule:evenodd;stroke-width:0.99999994"
     d="M 0.790375,537.12872 158.0414,388.61386 402.03011,619.49831 817.62213,62.87958 999.20962,192.67408 431.98268,937.12042 Z m 0,0 L 158.0414,388.61386 402.03011,619.49831 817.62213,62.87958 999.20962,192.67408 431.98268,937.12042 Z m 0,0 L 158.0414,388.61386 402.03011,619.49831 817.62213,62.87958 999.20962,192.67408 431.98268,937.12042 Z m 0,0 L 158.0414,388.61386 402.03011,619.49831 817.62213,62.87958 999.20962,192.67408 431.98268,937.12042 Z m 0,0 L 158.0414,388.61386 402.03011,619.49831 817.62213,62.87958 999.20962,192.67408 431.98268,937.12042 Z m 0,0 L 158.0414,388.61386 402.03011,619.49831 817.62213,62.87958 999.20962,192.67408 431.98268,937.12042 Z m 0,0 L 158.0414,388.61386 402.03011,619.49831 817.62213,62.87958 999.20962,192.67408 431.98268,937.12042 Z M 999.20962,192.67408"
     class="cls-1"
     data-name="√"
     id="_" />
</svg>
