<svg xmlns="http://www.w3.org/2000/svg" width="100" height="60" viewBox="0 0 100 60"><path d="M51.3 22.3v3h11.3v-3H51.3z" fill="#0099B5"/><path d="M1 22.3v15.4h2.9v-6.6h2.5l4.4 6.5h3.4s-4.4-6.2-4.7-6.7c2.2-.4 3.4-1.9 3.4-4.2 0-2.9-1.8-4.6-4.9-4.6.2.2-7 .2-7 .2zm7.4 2.9c1.3 0 1.8.9 1.8 1.6 0 .3-.1 1.5-1.8 1.5H3.9v-3.1h4.5zm26.4-2.9v15.4h8.5c2.6 0 4.5-2 4.5-4.7 0-1.7-.8-3-2.2-3.7.9-.6 1.5-1.6 1.5-2.8 0-2.9-2.1-4.2-4.2-4.2h-8.1zm8.2 8.8c1.1 0 1.9.8 1.9 1.8 0 1.1-.9 2-1.9 2h-5.4v-3.8H43zm-.5-6c1.2 0 1.7.8 1.7 1.6 0 .9-.6 1.5-1.7 1.5h-4.9v-3.1h4.9zm35.8 2.1l-.2-.2c-1-1.4-2.3-2.2-3.9-2.2-2.7 0-5 2.4-5 5.1s2.3 5.1 5 5.1c1.6 0 2.9-.7 4-2.1l.1-.1 2.5 1.8-.1.2C79 36.9 76.8 38 74.3 38c-4.7 0-8.3-3.5-8.3-8s3.6-8 8.3-8c2.5 0 4.8 1.1 6.4 3.1l.1.1-2.5 2zm-63 2.8c0 4.5 3.6 8 8.3 8s8.3-3.5 8.3-8-3.7-8-8.3-8c-4.7 0-8.3 3.5-8.3 8zm8.2-5.1c2.7 0 5.1 2.4 5.1 5.1s-2.4 5.1-5.1 5.1-5.1-2.4-5.1-5.1c0-2.8 2.3-5.1 5.1-5.1zM82.4 30c0 4.5 3.6 8 8.3 8s8.3-3.5 8.3-8-3.6-8-8.3-8-8.3 3.5-8.3 8zm8.3-5.1c2.7 0 5.1 2.4 5.1 5.1s-2.4 5.1-5.1 5.1-5.1-2.4-5.1-5.1 2.3-5.1 5.1-5.1zm-28.1 6.6v-3H51.3v9.2h11.3v-3h-8.5v-3.2h8.5z" fill="#392D25"/></svg>