<?xml version="1.0" encoding="utf-8"?>
<svg width='200px' height='200px' xmlns="http://www.w3.org/2000/svg" viewBox="0 0 100 100" preserveAspectRatio="xMidYMid" class="uil-ring">
    <defs>
        <filter id="uil-ring-shadow" x="-100%" y="-100%" width="300%" height="300%">
            <feOffset result="offOut" in="SourceGraphic" dx="0" dy="0"></feOffset>
            <feGaussianBlur result="blurOut" in="offOut" stdDeviation="0"></feGaussianBlur>
            <feBlend in="SourceGraphic" in2="blurOut" mode="normal"></feBlend>
        </filter>
    </defs>
    <path d="M10,50c0,0,0,0.5,0.1,1.4c0,0.5,0.1,1,0.2,1.7c0,0.3,0.1,0.7,0.1,1.1c0.1,0.4,0.1,0.8,0.2,1.2c0.2,0.8,0.3,1.8,0.5,2.8 c0.3,1,0.6,2.1,0.9,3.2c0.3,1.1,0.9,2.3,1.4,3.5c0.5,1.2,1.2,2.4,1.8,3.7c0.3,0.6,0.8,1.2,1.2,1.9c0.4,0.6,0.8,1.3,1.3,1.9 c1,1.2,1.9,2.6,3.1,3.7c2.2,2.5,5,4.7,7.9,6.7c3,2,6.5,3.4,10.1,4.6c3.6,1.1,7.5,1.5,11.2,1.6c4-0.1,7.7-0.6,11.3-1.6 c3.6-1.2,7-2.6,10-4.6c3-2,5.8-4.2,7.9-6.7c1.2-1.2,2.1-2.5,3.1-3.7c0.5-0.6,0.9-1.3,1.3-1.9c0.4-0.6,0.8-1.3,1.2-1.9 c0.6-1.3,1.3-2.5,1.8-3.7c0.5-1.2,1-2.4,1.4-3.5c0.3-1.1,0.6-2.2,0.9-3.2c0.2-1,0.4-1.9,0.5-2.8c0.1-0.4,0.1-0.8,0.2-1.2 c0-0.4,0.1-0.7,0.1-1.1c0.1-0.7,0.1-1.2,0.2-1.7C90,50.5,90,50,90,50s0,0.5,0,1.4c0,0.5,0,1,0,1.7c0,0.3,0,0.7,0,1.1 c0,0.4-0.1,0.8-0.1,1.2c-0.1,0.9-0.2,1.8-0.4,2.8c-0.2,1-0.5,2.1-0.7,3.3c-0.3,1.2-0.8,2.4-1.2,3.7c-0.2,0.7-0.5,1.3-0.8,1.9 c-0.3,0.7-0.6,1.3-0.9,2c-0.3,0.7-0.7,1.3-1.1,2c-0.4,0.7-0.7,1.4-1.2,2c-1,1.3-1.9,2.7-3.1,4c-2.2,2.7-5,5-8.1,7.1 c-0.8,0.5-1.6,1-2.4,1.5c-0.8,0.5-1.7,0.9-2.6,1.3L66,87.7l-1.4,0.5c-0.9,0.3-1.8,0.7-2.8,1c-3.8,1.1-7.9,1.7-11.8,1.8L47,90.8 c-1,0-2-0.2-3-0.3l-1.5-0.2l-0.7-0.1L41.1,90c-1-0.3-1.9-0.5-2.9-0.7c-0.9-0.3-1.9-0.7-2.8-1L34,87.7l-1.3-0.6 c-0.9-0.4-1.8-0.8-2.6-1.3c-0.8-0.5-1.6-1-2.4-1.5c-3.1-2.1-5.9-4.5-8.1-7.1c-1.2-1.2-2.1-2.7-3.1-4c-0.5-0.6-0.8-1.4-1.2-2 c-0.4-0.7-0.8-1.3-1.1-2c-0.3-0.7-0.6-1.3-0.9-2c-0.3-0.7-0.6-1.3-0.8-1.9c-0.4-1.3-0.9-2.5-1.2-3.7c-0.3-1.2-0.5-2.3-0.7-3.3 c-0.2-1-0.3-2-0.4-2.8c-0.1-0.4-0.1-0.8-0.1-1.2c0-0.4,0-0.7,0-1.1c0-0.7,0-1.2,0-1.7C10,50.5,10,50,10,50z" fill="#0099b5" filter="url(#uil-ring-shadow)">
        <animateTransform attributeName="transform" type="rotate" from="0 50 50" to="360 50 50" repeatCount="indefinite" dur="1s"></animateTransform>
    </path>
    <g transform="translate(19.1,39) scale(0.31)" >
	    <path d="m105.2 1.4v6.2h23.1v-6.2z" fill="#0099b5" />
	    <path d="m2.6 1.4v31.5h5.9v-13.3h5.2l9 13.3h6.9s-8.9-12.7-9.5-13.6c4.5-.9 7-3.9 7-8.6 0-5.9-3.6-9.3-9.9-9.3 0 0-14.6 0-14.6 0zm15.1 6c2.6 0 3.6 1.8 3.6 3.3 0 .7-.3 3-3.6 3h-9.2v-6.3zm53.7-5.9v12.6 5.4 13.4h17.4c5.3 0 9.1-4 9.1-9.6 0-3.5-1.7-6.2-4.5-7.5 1.9-1.2 3-3.2 3-5.7 0-5.9-4.3-8.6-8.6-8.6 0 0-16.4 0-16.4 0zm16.9 17.9c2.3 0 3.9 1.6 3.9 3.7 0 2.2-1.8 4-3.9 4h-11.1v-7.8c0 .1 11.1.1 11.1.1zm-1.1-12.2c2.4 0 3.4 1.7 3.4 3.3 0 1.9-1.3 3-3.4 3h-10v-6.3zm73 4.3-.3-.4c-2-2.9-4.7-4.4-8-4.4-5.6 0-10.3 4.8-10.3 10.4s4.7 10.4 10.3 10.4c3.2 0 6-1.4 8.1-4.2l.3-.3 5.1 3.7-.3.4c-3.4 4.2-7.9 6.4-13.1 6.4-9.5 0-16.9-7.2-16.9-16.4s7.4-16.4 16.9-16.4c5.2 0 9.7 2.2 13.1 6.4l.3.3zm-128.5 5.7c0 9.2 7.4 16.4 16.9 16.4s16.9-7.2 16.9-16.4-7.5-16.4-17-16.4c-9.4 0-16.8 7.2-16.8 16.4zm16.8-10.5c5.6 0 10.4 4.8 10.4 10.5s-4.8 10.5-10.4 10.5-10.4-4.8-10.4-10.5 4.8-10.5 10.4-10.5zm120.3 10.5c0 9.2 7.4 16.4 16.9 16.4s16.9-7.2 16.9-16.4-7.4-16.4-16.9-16.4c-9.5 0-16.9 7.2-16.9 16.4zm16.8-10.5c5.6 0 10.4 4.8 10.4 10.5s-4.8 10.5-10.4 10.5-10.4-4.8-10.4-10.5 4.8-10.5 10.4-10.5zm-57.3 13.5v-6.2h-23.1v6.2h0v6.5h0v6.2h23.1v-6.2h-17.4v-6.5z" fill="#392d25" />
	    <path d="m7.4 44.8v10.9h-2.1v-10.9h-2.8v-1.8h7.7v1.8zm9.7 10.9v-5.9c0-1.1-.4-2-1.2-2-.5 0-1.2.3-1.9 1.1v6.9h-2.1v-13.6l2.1-.3v5.1c1.1-.9 1.7-1.2 2.7-1.2 1.5 0 2.5 1.2 2.5 3.4v6.5zm8 .1c-2.7 0-3.8-1.5-3.8-4.9s1.5-5.1 4-5.1c2.1 0 3.5 1.5 3.5 4.2 0 .4 0 1-.1 1.4h-5.3c0 1.9.6 2.6 2 2.6.7 0 1.9-.2 2.9-.5l.4 1.5c-1.3.6-2.4.8-3.6.8zm1.7-6c0-1.3-.4-2.3-1.6-2.3s-1.7 1.2-1.7 2.4h3.4zm8.9 5.9v-12.7h2.2v12.7zm10.2 0v-5.9c0-1.1-.4-2-1.2-2-.5 0-1.2.3-1.9 1.1v6.9h-2.1v-9.8h1.7l.2 1.1c1.2-1 1.9-1.3 2.8-1.3 1.5 0 2.5 1.2 2.5 3.4v6.5zm8.7 0h-2.8l-2.5-9.7h2.2l1.5 6.3.3 1.5h0l .3-1.5 1.4-6.2h2.2zm7.3.1c-2.7 0-3.8-1.5-3.8-4.9s1.5-5.1 4-5.1c2.1 0 3.5 1.5 3.5 4.2 0 .4 0 1-.1 1.4h-5.3c0 1.9.6 2.6 2 2.6.7 0 1.9-.2 2.9-.5l.4 1.5c-1.3.6-2.4.8-3.6.8zm1.7-6c0-1.3-.4-2.3-1.6-2.3s-1.7 1.2-1.7 2.4h3.4v-.1zm6.5 6c-1.1 0-1.9-.2-2.8-.7l.6-1.5c.7.4 1.4.6 1.9.6.9 0 1.3-.5 1.3-1 0-.6-.2-.9-1.6-1.6-1.6-.8-2.2-1.8-2.2-3 0-1.6 1.2-2.7 3-2.7.9 0 1.8.2 2.5.7l-.4 1.4c-.6-.2-1.2-.5-1.8-.5-.8 0-1.1.4-1.1.9 0 .6.3.9 1.6 1.6 1.7.9 2.2 1.8 2.2 3 0 1.8-1.3 2.8-3.2 2.8zm7.5 0c-1.2 0-2.1-.5-2.1-2.4v-5.8h-1.3v-1.6h1.3v-2.7l2-.3v3h1.9v1.6h-1.9v5.4c0 .8.2 1 .9 1 .2 0 .6 0 .9-.1l.1 1.6c-.5.2-1.2.3-1.8.3zm14.1-.1v-5.9c0-1.1-.3-2-1.2-2-.5 0-1.1.3-1.9 1.1v6.9h-2v-5.9c0-1.1-.3-2-1.2-2-.5 0-1.1.3-1.9 1.1v6.9h-2.1v-9.9h1.7l.2 1.1c1.2-1 1.9-1.3 2.8-1.3 1 0 1.7.5 2.1 1.4 1.5-1.2 2.1-1.4 3-1.4 1.5 0 2.5 1.2 2.5 3.4v6.5zm8 .1c-2.7 0-3.8-1.5-3.8-4.9s1.5-5.1 4-5.1c2.1 0 3.5 1.5 3.5 4.2 0 .4 0 1-.1 1.4h-5.3c0 1.9.6 2.6 2 2.6.7 0 1.9-.2 2.9-.5l.4 1.5c-1.3.6-2.4.8-3.6.8zm1.7-6c0-1.3-.4-2.3-1.6-2.3s-1.7 1.2-1.7 2.4h3.4zm9.6 5.9v-5.9c0-1.1-.4-2-1.2-2-.5 0-1.2.3-1.9 1.1v6.9h-2.1v-9.8h1.7l.2 1.1c1.2-1 1.9-1.3 2.8-1.3 1.5 0 2.5 1.2 2.5 3.4v6.5zm6.9.1c-1.2 0-2.1-.5-2.1-2.4v-5.8h-1.3v-1.6h1.3v-2.7l2-.3v3h1.9v1.6h-1.9v5.4c0 .8.2 1 .9 1 .2 0 .6 0 .9-.1l.1 1.6c-.4.2-1.1.3-1.8.3zm8.4-.1v-12.7h6.3v1.8h-4.1v3.5h3.7v1.7h-3.7v3.8h4.2v1.8zm13.7 0v-5.9c0-1.1-.4-2-1.2-2-.5 0-1.1.3-1.9 1.1v6.9h-2.1v-9.8h1.7l.2 1.1c1.2-1 1.9-1.3 2.8-1.3 1.5 0 2.5 1.2 2.5 3.4v6.5zm8 3.5c-.8 0-1.6 0-2.2-.1l-.3-1.5h2.1c1.8 0 2.2-.8 2.2-1.9v-1c-1 .9-1.7 1.2-2.5 1.2-1.8 0-2.9-1.8-2.9-4.9 0-3.3 1.4-5.1 3.3-5.1.7 0 1.3.3 2.3 1.2l.2-1.1h1.7v9.3c-.1 2.9-1.8 3.9-3.9 3.9zm1.8-10.4c-.7-.7-1.3-1.1-1.8-1.1-.9 0-1.6 1.1-1.6 3.1s.6 3.1 1.5 3.1c.5 0 1.1-.4 1.9-1.1zm4.7-4.6v-2.1h2.1v2.1zm0 11.5v-9.7h2.1v9.7zm10 0v-5.9c0-1.1-.4-2-1.2-2-.5 0-1.1.3-1.9 1.1v6.9h-2.1v-9.8h1.7l.2 1.1c1.2-1 1.9-1.3 2.8-1.3 1.5 0 2.5 1.2 2.5 3.4v6.5zm8 .1c-2.7 0-3.8-1.5-3.8-4.9s1.5-5.1 4-5.1c2.1 0 3.5 1.5 3.5 4.2 0 .4 0 1-.1 1.4h-5.3c0 1.9.6 2.6 2 2.6.7 0 1.9-.2 2.9-.5l.4 1.5c-1.3.6-2.4.8-3.6.8zm1.7-6c0-1.3-.4-2.3-1.6-2.3s-1.7 1.2-1.7 2.4h3.4v-.1zm7.7 6c-2.7 0-3.8-1.5-3.8-4.9s1.5-5.1 4-5.1c2.1 0 3.5 1.5 3.5 4.2 0 .4 0 1-.1 1.4h-5.3c0 1.9.6 2.6 2 2.6.7 0 1.9-.2 2.9-.5l.4 1.5c-1.3.6-2.5.8-3.6.8zm1.7-6c0-1.3-.4-2.3-1.6-2.3s-1.7 1.2-1.7 2.4h3.4v-.1zm8.3-1.9c-.8 0-1.2.3-2 1.1v6.7h-2.1v-9.7h1.7l.2 1.2c1.2-1.2 1.5-1.4 2.3-1.4h.4v2.1zm4.5 7.9c-1.1 0-1.9-.2-2.8-.7l.6-1.5c.7.4 1.4.6 1.9.6.9 0 1.3-.5 1.3-1 0-.6-.2-.9-1.6-1.6-1.6-.8-2.2-1.8-2.2-3 0-1.6 1.2-2.7 3-2.7.9 0 1.8.2 2.5.7l-.6 1.5c-.6-.2-1.2-.5-1.8-.5-.8 0-1.1.4-1.1.9 0 .6.3.9 1.6 1.6 1.7.9 2.2 1.8 2.2 3 .2 1.7-1.1 2.7-3 2.7z" fill="#0099b5" />
	 </g>
</svg>
