<svg xmlns="http://www.w3.org/2000/svg" width="200" height="160" viewBox="0 0 200 160"><path d="M102.6 52v6.1h22.6V52h-22.6z" fill="#0099B5"/><path d="M2.1 52v30.9h5.8v-13H13l8.8 13h6.8s-8.7-12.4-9.3-13.3c4.4-.9 6.9-3.8 6.9-8.4 0-5.8-3.5-9.1-9.7-9.1-.1-.1-14.4-.1-14.4-.1zm14.8 5.9c2.5 0 3.5 1.8 3.5 3.2 0 .7-.3 2.9-3.5 2.9h-9v-6.2h9zm52.6-5.8V82.8h17c5.2 0 8.9-3.9 8.9-9.4 0-3.4-1.7-6.1-4.4-7.3 1.9-1.1 3-3.1 3-5.5 0-5.8-4.2-8.4-8.4-8.4 0-.1-16.1-.1-16.1-.1zM86 69.7c2.3 0 3.8 1.6 3.8 3.6 0 2.2-1.8 3.9-3.8 3.9H75.2v-7.6c0 .1 10.8.1 10.8.1zm-1-12c2.4 0 3.3 1.7 3.3 3.2 0 1.9-1.3 2.9-3.3 2.9h-9.8v-6.2H85zm71.5 4.2l-.3-.4c-2-2.8-4.6-4.3-7.8-4.3-5.5 0-10.1 4.7-10.1 10.2s4.6 10.2 10.1 10.2c3.1 0 5.9-1.4 7.9-4.1l.3-.3 5 3.6-.3.4c-3.3 4.1-7.7 6.3-12.8 6.3-9.3 0-16.6-7.1-16.6-16.1s7.2-16.1 16.6-16.1c5.1 0 9.5 2.2 12.8 6.3l.3.3-5.1 4zM30.6 67.5c0 9 7.2 16.1 16.6 16.1s16.6-7.1 16.6-16.1-7.3-16.1-16.7-16.1c-9.2 0-16.5 7.1-16.5 16.1zm16.5-10.3c5.5 0 10.2 4.7 10.2 10.3s-4.7 10.3-10.2 10.3-10.2-4.7-10.2-10.3 4.7-10.3 10.2-10.3zm117.8 10.3c0 9 7.2 16.1 16.6 16.1 9.3 0 16.6-7.1 16.6-16.1s-7.2-16.1-16.6-16.1c-9.4 0-16.6 7.1-16.6 16.1zm16.4-10.3c5.5 0 10.2 4.7 10.2 10.3s-4.7 10.3-10.2 10.3-10.2-4.7-10.2-10.3 4.8-10.3 10.2-10.3zm-56.1 13.2v-6.1h-22.6v18.6h22.6v-6.1h-17v-6.4h17z" fill="#392D25"/><path d="M6.8 94.5v10.7H4.7V94.5H2v-1.8h7.5v1.8H6.8zm9.5 10.7v-5.8c0-1.1-.4-2-1.2-2-.5 0-1.2.3-1.9 1.1v6.8h-2.1V92l2.1-.3v5c1.1-.9 1.7-1.2 2.6-1.2 1.5 0 2.4 1.2 2.4 3.3v6.4h-1.9zm7.8.1c-2.6 0-3.7-1.5-3.7-4.8s1.5-5 3.9-5c2.1 0 3.4 1.5 3.4 4.1 0 .4 0 1-.1 1.4h-5.2c0 1.9.6 2.5 2 2.5.7 0 1.9-.2 2.8-.5l.4 1.5c-1.2.6-2.3.8-3.5.8zm1.7-5.9c0-1.3-.4-2.3-1.6-2.3s-1.7 1.2-1.7 2.4l3.3-.1zm8.7 5.8V92.8h2.2v12.4h-2.2zm10 0v-5.8c0-1.1-.4-2-1.2-2-.5 0-1.2.3-1.9 1.1v6.8h-2.1v-9.6H41l.2 1.1c1.2-1 1.9-1.3 2.7-1.3 1.5 0 2.4 1.2 2.4 3.3v6.4h-1.8zm8.5 0h-2.7l-2.4-9.5H50l1.5 6.2.3 1.5.3-1.5 1.4-6.1h2.2l-2.7 9.4zm7.2.1c-2.6 0-3.7-1.5-3.7-4.8s1.5-5 3.9-5c2.1 0 3.4 1.5 3.4 4.1 0 .4 0 1-.1 1.4h-5.2c0 1.9.6 2.5 2 2.5.7 0 1.9-.2 2.8-.5l.4 1.5c-1.3.6-2.3.8-3.5.8zm1.6-5.9c0-1.3-.4-2.3-1.6-2.3-1.2 0-1.7 1.2-1.7 2.4l3.3-.1zm6.4 5.9c-1.1 0-1.9-.2-2.7-.7l.6-1.5c.7.4 1.4.6 1.9.6.9 0 1.3-.5 1.3-1 0-.6-.2-.9-1.6-1.6-1.6-.8-2.2-1.8-2.2-2.9 0-1.6 1.2-2.6 2.9-2.6.9 0 1.8.2 2.4.7l-.4 1.4c-.6-.2-1.2-.5-1.8-.5-.8 0-1.1.4-1.1.9 0 .6.3.9 1.6 1.6 1.7.9 2.2 1.8 2.2 2.9 0 1.7-1.2 2.7-3.1 2.7zm7.4 0c-1.2 0-2.1-.5-2.1-2.4v-5.7h-1.3v-1.6h1.3V93l2-.3v2.9h1.9v1.6h-1.9v5.3c0 .8.2 1 .9 1 .2 0 .6 0 .9-.1l.1 1.6c-.6.2-1.3.3-1.8.3zm13.8-.1v-5.8c0-1.1-.3-2-1.2-2-.5 0-1.1.3-1.9 1.1v6.8h-2v-5.8c0-1.1-.3-2-1.2-2-.5 0-1.1.3-1.9 1.1v6.8h-2.1v-9.7h1.7l.2 1.1c1.2-1 1.9-1.3 2.7-1.3 1 0 1.7.5 2.1 1.4 1.5-1.2 2.1-1.4 2.9-1.4 1.5 0 2.4 1.2 2.4 3.3v6.4h-1.7zm7.8.1c-2.6 0-3.7-1.5-3.7-4.8s1.5-5 3.9-5c2.1 0 3.4 1.5 3.4 4.1 0 .4 0 1-.1 1.4h-5.2c0 1.9.6 2.5 2 2.5.7 0 1.9-.2 2.8-.5l.4 1.5c-1.2.6-2.3.8-3.5.8zm1.7-5.9c0-1.3-.4-2.3-1.6-2.3-1.2 0-1.7 1.2-1.7 2.4l3.3-.1zm9.4 5.8v-5.8c0-1.1-.4-2-1.2-2-.5 0-1.2.3-1.9 1.1v6.8h-2.1v-9.6h1.7l.2 1.1c1.2-1 1.9-1.3 2.7-1.3 1.5 0 2.4 1.2 2.4 3.3v6.4h-1.8zm6.7.1c-1.2 0-2.1-.5-2.1-2.4v-5.7h-1.3v-1.6h1.3V93l2-.3v2.9h1.9v1.6h-1.9v5.3c0 .8.2 1 .9 1 .2 0 .6 0 .9-.1l.1 1.6c-.4.2-1.1.3-1.8.3zm8.3-.1V92.8h6.2v1.8h-4V98h3.6v1.7h-3.6v3.7h4.1v1.8h-6.3zm13.4 0v-5.8c0-1.1-.4-2-1.2-2-.5 0-1.1.3-1.9 1.1v6.8h-2.1v-9.6h1.7l.2 1.1c1.2-1 1.9-1.3 2.7-1.3 1.5 0 2.4 1.2 2.4 3.3v6.4h-1.8zm7.8 3.5c-.8 0-1.6 0-2.2-.1l-.3-1.5h2.1c1.8 0 2.2-.8 2.2-1.9v-1c-1 .9-1.7 1.2-2.4 1.2-1.8 0-2.8-1.8-2.8-4.8 0-3.2 1.4-5 3.2-5 .7 0 1.3.3 2.3 1.2l.2-1.1h1.7v9.1c-.3 2.9-1.9 3.9-4 3.9zm1.8-10.2c-.7-.7-1.3-1.1-1.8-1.1-.9 0-1.6 1.1-1.6 3s.6 3 1.5 3c.5 0 1.1-.4 1.9-1.1v-3.8zm4.6-4.5v-2.1h2.1V94h-2.1zm0 11.2v-9.5h2.1v9.5h-2.1zm9.8 0v-5.8c0-1.1-.4-2-1.2-2-.5 0-1.1.3-1.9 1.1v6.8h-2.1v-9.6h1.7l.2 1.1c1.2-1 1.9-1.3 2.7-1.3 1.5 0 2.4 1.2 2.4 3.3v6.4h-1.8zm7.8.1c-2.6 0-3.7-1.5-3.7-4.8s1.5-5 3.9-5c2.1 0 3.4 1.5 3.4 4.1 0 .4 0 1-.1 1.4h-5.2c0 1.9.6 2.5 2 2.5.7 0 1.9-.2 2.8-.5l.4 1.5c-1.2.6-2.3.8-3.5.8zm1.7-5.9c0-1.3-.4-2.3-1.6-2.3-1.2 0-1.7 1.2-1.7 2.4l3.3-.1zm7.5 5.9c-2.6 0-3.7-1.5-3.7-4.8s1.5-5 3.9-5c2.1 0 3.4 1.5 3.4 4.1 0 .4 0 1-.1 1.4H176c0 1.9.6 2.5 2 2.5.7 0 1.9-.2 2.8-.5l.4 1.5c-1.2.6-2.4.8-3.5.8zm1.7-5.9c0-1.3-.4-2.3-1.6-2.3s-1.7 1.2-1.7 2.4l3.3-.1zm8.1-1.8c-.8 0-1.2.3-2 1.1v6.6h-2.1v-9.5h1.7l.2 1.2c1.2-1.2 1.5-1.4 2.3-1.4h.4v2.1h-.5zm4.4 7.7c-1.1 0-1.9-.2-2.7-.7l.6-1.5c.7.4 1.4.6 1.9.6.9 0 1.3-.5 1.3-1 0-.6-.2-.9-1.6-1.6-1.6-.8-2.2-1.8-2.2-2.9 0-1.6 1.2-2.6 2.9-2.6.9 0 1.8.2 2.4.7l-.6 1.5c-.6-.2-1.2-.5-1.8-.5-.8 0-1.1.4-1.1.9 0 .6.3.9 1.6 1.6 1.7.9 2.2 1.8 2.2 2.9.3 1.6-1 2.6-2.9 2.6z" fill="#0099B5"/></svg>