<svg xmlns="http://www.w3.org/2000/svg" width="200" height="160" viewBox="0 0 200 160"><path d="M102.5 48.3v6.1h22.6v-6.1h-22.6z" fill="#0099B5"/><path d="M2 48.3v30.9h5.8v-13h5.1l8.8 13h6.8s-8.7-12.4-9.3-13.3c4.4-.9 6.9-3.8 6.9-8.4 0-5.8-3.5-9.1-9.7-9.1-.1-.1-14.4-.1-14.4-.1zm14.8 5.8c2.5 0 3.5 1.8 3.5 3.2 0 .7-.3 2.9-3.5 2.9h-9V54h9zm52.6-5.8v30.8h17.1c5.2 0 8.9-3.9 8.9-9.4 0-3.4-1.7-6.1-4.4-7.3 1.9-1.2 2.9-3.1 2.9-5.6 0-5.8-4.2-8.4-8.4-8.4 0-.1-16.1-.1-16.1-.1zM86 65.9c2.3 0 3.8 1.6 3.8 3.6 0 2.2-1.8 3.9-3.8 3.9H75.1v-7.6c0 .1 10.9.1 10.9.1zm-1.1-12c2.4 0 3.3 1.7 3.3 3.2 0 1.9-1.3 2.9-3.3 2.9h-9.8v-6.2h9.8zm71.5 4.2l-.3-.4c-2-2.8-4.6-4.3-7.8-4.3-5.5 0-10.1 4.7-10.1 10.2s4.6 10.2 10.1 10.2c3.1 0 5.9-1.4 7.9-4.1l.3-.3 5 3.6-.3.4c-3.3 4.1-7.7 6.3-12.8 6.3-9.3 0-16.6-7.1-16.6-16.1s7.3-16.1 16.6-16.1c5.1 0 9.5 2.2 12.8 6.3l.3.3-5.1 4zM30.5 63.7c0 9 7.3 16.1 16.6 16.1s16.6-7.1 16.6-16.1-7.4-16-16.7-16c-9.2 0-16.5 7-16.5 16zM47 53.4c5.5 0 10.2 4.7 10.2 10.3S52.5 74 47 74s-10.2-4.7-10.2-10.3S41.5 53.4 47 53.4zm117.9 10.3c0 9 7.3 16.1 16.6 16.1S198 72.7 198 63.7s-7.3-16.1-16.6-16.1-16.5 7.1-16.5 16.1zm16.4-10.3c5.5 0 10.2 4.7 10.2 10.3S186.8 74 181.3 74s-10.2-4.7-10.2-10.3 4.7-10.3 10.2-10.3zm-56.1 13.3v-6.1h-22.6v18.5h22.6V73h-17.1v-6.4h17.1zm55 26.1H196v16.3h-15.8V92.8zm0 18H196v1.5h1.9V91.2h-19.5v21h1.9v-1.4zm12.4-6.5v-.7h1.1c.2.2.3.5.4.8l-1.5-.1zm-.6-2.3l.4.3-3.3.1v-.6l3.4.1-.5.1zm-4.8-3.8h-3.3v-.5h3.4l-.1.5zm5.3 2H189v-.6h3.5v.6zm-5.3 0h-3.4v-.6h3.4v.6zm5.3-2H189v-.5h3.5v.5zm2.9 6.1l-1.1-.1 1.3-.5c-.6-1-1.3-1.8-1.6-2.1h.1V96H189v-.5h6.4V94H189v-1h-1.8v1h-6.4v1.6h6.4v.5H182v5.7h5.2v.7l-6.7.1.9 1.5 9.5-.4v.8h-10.2v1.6h2.5l-.7.7c1.2.5 2.4 1.3 3 2l1.2-1.2c-1-.9-1.9-1.4-2-1.5h5.9c0 .9-.1 1.2-.4 1.3-.8.1-1.7-.1-2.6-.1l.6 1.7h2.9c.6 0 1.3-.5 1.3-1.4v-1.4h2.9l.1-1.9zm-31.3 7.9l.1-5.9c1.9 2.6 5.6 4 9.2 4.7.3-.6.6-1 1-1.7-2.5-.4-4.7-1.1-6.6-2.2-.7-.4-1.3-.9-1.5-1.2h7.1v-1.8h-9.3v-1.4h-2v1.4H153v1.8h6.9c-1.9 1.6-4.8 2.8-8 3.4.5.7.7 1.2 1.1 1.7 3.6-.8 7.1-2.3 9.2-4.8v5.9h1.9v.1zm-1.3-12.3v1.2h-5.5l-.1-1.2h5.6zm0-4.4h-5.5v-1.1l5.5.1v1zm-5.5 1.6h5.5v1h-5.5v-1zm7.8-4.6l.5-.4c-.7-.9-2.3-2.1-3.4-2.4l-1.4 1.2c1.2.6 2.1 1.2 2.4 1.7h-5.4c.1-.2.6-.9 1-1.9l-1.7-.7c-1.2 2.5-2.7 5.1-5.2 6.9.7.4 1 .7 1.6 1.1 1-.8 1.7-1.4 1.9-1.7v7.5h1.9v-1.2H173v-1.8h-8.2v-1.2h6.4v-1.8h-6.4v-1h6.4V95h-6.3v-1.1h7.8v-1.8l-7.6.4zm-29.9 13.7v-1.9c-1.2.5-2.3 1-2.9 1.2v-5h2.4v-1.7h-2.4v-4.9h2.7v-1.8h-7.6v1.8h2.9v4.9h-2.4v1.8h2.5v5.7c-1.1.4-2.2.9-3.7 1.3.7.7 1.1 1 1.7 1.5l6.8-2.9zm5.4-8.6v2.8h-3.2v-2.8h3.2zm1.8-4.4h3.2l-.1 2.6h-3.1v-2.6zm3.2 4.5v2.7h-3.2v-2.7h3.2zm-8.3-1.8v-2.6h3.2v2.6h-3.2zm-1.9-4.4v10.8h5.1v2.4h-4.9v1.8h4.9v2.8H134v1.8h15v-1.8h-6.6v-2.8h4.9v-1.8h-4.9v-2.4h5l.1-10.8h-12.1zM119 107.3v1.7h-10.6v-1.7H119zm-10.6-6.2h9.5v1.6h-9.6l.1-1.6zm15.3-7.5v-1.8H117c.1-.3.3-.8.4-1.5l-1.7-.6c-.4 1.9-1.1 3.2-2.4 4.7.6.4 1 .7 1.5 1.1.7-.6 1.2-1.4 1.5-1.9h1.7c.7.6 1.2 1.4 1.6 2.4.7-.3 1.2-.5 1.7-.9-.4-.8-1-1.4-1.2-1.5h3.6zm-20.1 2.7c1.3-.9 2-1.7 2.5-2.4h1.5c.6.7 1 1.4 1.4 2.4l1.7-.9c-.4-.6-.8-1.4-.9-1.5h3.7V92h-6.3c.1-.2.4-.8.6-1.4l-1.6-.8c-.9 2-2.1 3.8-4 5.1.1 0 1.4 1.4 1.4 1.4zm-.4 4.8h1.9v-2.9h16.2v2.8h1.9v-4.6h-8.8c-.3-.5-.9-1.5-1.7-2.3l-1.8.6c.8.7 1.3 1.4 1.4 1.7h-9c-.1 0-.1 4.7-.1 4.7zm5.2 9.7H119v1.5h1.9v-6.6h-12.5v-1.3h11.5v-5h-13.3v12.9h2v-1.5zM82.6 95.2c-1.6 1.8-3.2 2.9-5.3 3.5l1.2 1.6c1.9-.9 4-2.4 5.4-3.9-.1 0-1.3-1.2-1.3-1.2zm-4.6-3c1.8.4 3.2 1.6 4.2 2.5l1.1-1.4c-1.3-1.2-2.6-2.1-4.2-2.5L78 92.2zm4.9 13.7h10.8v1.1H82.9v-1.1zm10.7-4.3H82.9v-1h10.7v1zm0 2.6H82.9V103h10.8v1.2zm-4.1 5.8c3.2.3 5.8 1 8.4 2.4l1.1-1.6c-2.2-1.1-4.4-1.9-6.8-2.3h3.3v-9.8l-10-.1c2-.3 3.9-1.1 5.3-2.6 2.1 2 4.2 2.5 7.3 3.1l1-1.8c-3.7-.3-5.6-1.1-7.3-2.8.2-.3.4-.7.5-1.1h3.3c-.1.4-.3.7-.9 1.6l1.6.8c.7-1.3 1.3-2.4 1.7-4.1h-9.1c.1-.1.3-.7.4-1.2l-1.5-.5c-.8 1.9-2.1 3.8-4 4.9l1.6 1.1c1.1-.7 1.8-1.6 2.4-2.4h2.6c-.6 2.2-3.5 3.4-6.8 3.6l.9 1.6H81v9.8l4.6.1c-2.4 1.3-5.2 1.8-8.3 2l1 1.8c3.2-.3 6-1.1 8.7-2.5l-1.1-1.2h4.4c0-.1-.8 1.2-.8 1.2zm-20-8c-.5 1.7-1.4 2.7-2.4 3.8-.8-.6-2-2.7-2.4-3.8h4.8zm-9.2 10.1c2.6-.9 4.9-2.2 6.6-3.6 1.5 1.2 4.4 3.1 6.6 3.7l1.2-1.8c-2.4-.7-4.7-1.7-6.3-3.1 1.8-1.8 3.2-4.1 3.4-7.1H61.3v1.8h1.3c.7 1.9 1.7 3.6 2.9 5.1-1.8 1.5-3.9 2.4-6.5 3.3 0 .1 1.3 1.7 1.3 1.7zm.4-11.7c1.4-.8 2.3-1.8 2.8-2.9.7-1.4.8-2.9.8-4.4h4.6v3.5c0 1 .4 2.1 2 2.4h3v-1.8h-2.4c-.5 0-.7-.2-.7-.6v-5.3h-8.4c0 1.9-.1 3.6-.4 4.7-.3 1.3-1.5 2.3-2.9 2.8-.1 0 1.6 1.6 1.6 1.6zm-4.4 9.5c.1.3-.3.6-.6.6-.8 0-1.5 0-2.5-.1.3.8.4 1.3.6 1.9 1.2 0 2.4.2 3.3-.2.6-.2 1.1-.9 1.1-1.4v-7.1c.8-.4 1.8-.5 2.7-1v-1.9l-2.7.9v-4.9H61v-1.9h-2.8v-4.6h-1.9v4.6h-3.2v1.8h3.2v5.6c-1.2.4-2.4.8-4 1.2.5.7.8 1.1 1.2 1.7 1.1-.3 2.2-.7 2.8-1v5.8zm-20.2-1.1c-2.6 1.1-5.3 1.5-8.4 1.7l.9 1.7c2.9-.3 5.7-.9 8.3-2.1l-.8-1.3zM42 96.2h-2.1s0-.1.1-.1c.1-.1.2-.2.3-.4h1.8l-.1.5zm1.8 2.3v-.9H48v-1.5h-4.3v-.5H46v-1.5h-5l.3-.8h5.1v2.4h1.9v-4.2h-8.8c-.6-.8-1.5-1.5-2.4-2l-1.5 1.2c1 .4 1.6.7 1.8.8h-8.9V96h1.9v-.4h2v.8h-2.9v1.5h2.9v.9c-1.4 0-2.8.1-4.4.2l.9 1.5 8.7-.7v-1.4c-1.5.1-2.6.3-3.8.3v-.9h2.6v-1.5h-2.6v-.8h3.3v-1.4h-7.2v-.7h9.5c-.2.7-.8 1.6-1.8 2.4l.6.4h-1v1.5h4.3v.9h-1.8V98H38v2.1h8.5v-2.3H45v.7h-1.2zm5.3 12.4c-2.7-1.3-5.8-2.1-8.9-2l-.9 1.5c3.4 0 6.2.6 8.9 2 .1-.1.9-1.5.9-1.5zm-16.3-8.7H44v.7H32.8v-.7zm11.1 4.2v.8H32.8v-.8h11.1zm0-2.1v.7H32.8v-.8l11.1.1zm1.9 4.4v-8h-15v8h15zm-29.9-2.6h-3.8v-3.3h3.8v3.3zm-.1 3h1.9V101h-7.4v8.2h1.9v-1.3H16l-.2 1.2zm4.3-10.3v11c0 .4-.2.7-.6.7l-3.2-.1.6 1.9h3.2c1.2 0 1.8-1 1.8-2V98.8h2.4V97h-15v1.8h10.8zm-1.4-2.6v-1.7h5v-1.8h-5v-2.6h-1.9v2.6h-3.2v1.8h3.2v1.7h1.9zm-11.1-.3c-1.1 3-2.7 5.8-5.6 7.7l1.6 1.3c.8-.6 1.5-1.2 1.8-1.5v9h1.9v-11.6c.9-1.2 1.5-2.6 2.2-4.1l-1-.6H10v-1.7h3.2v-1.8H9.8V90H8v2.6H2.8v1.8H8V96l-.4-.1z" fill="#392D25"/></svg>